# xmcd
#
# Track frame offsets:
#	300
#	18538
#	38909
#	57607
#	73963
#
# Disc length: 1152 seconds
#
# Revision: 1
# Processed by: cddbd v1.5.2PL0 Copyright (c) Steve Scherf et al.
# Submitted via: audiograbber 1.83.01
#
DISCID=4b047c05
DTITLE=Kool Savas - Tot oder Lebendig
DYEAR=2007
DGENRE=Rap
TTITLE0=Tot oder Lebendig
TTITLE1=Tot oder Lebendig Remix
TTITLE2=Alle schieben Optik
TTITLE3=Der Beweis
TTITLE4=Absturz
EXTD=
EXTT0=
EXTT1=
EXTT2=
EXTT3=
EXTT4=
PLAYORDER=
